<?xml version="1.0" standalone="no"?>
<!DOCTYPE svg PUBLIC "-//W3C//DTD SVG 20010904//EN"
 "http://www.w3.org/TR/2001/REC-SVG-20010904/DTD/svg10.dtd">
<svg version="1.0" xmlns="http://www.w3.org/2000/svg"
 width="788.000000pt" height="548.000000pt" viewBox="0 0 788.000000 548.000000"
 preserveAspectRatio="xMidYMid meet">
<metadata>
Created by potrace 1.13, written by Peter Selinger 2001-2015
</metadata>
<g transform="translate(0.000000,548.000000) scale(0.100000,-0.100000)"
fill="#000000" stroke="none">
<path d="M4990 5013 c-46 -2 -89 -8 -95 -12 -5 -5 -40 -11 -77 -15 -37 -3 -86
-15 -110 -26 -24 -11 -53 -20 -65 -20 -24 0 -100 -23 -148 -45 -16 -7 -51 -19
-77 -25 -27 -7 -48 -16 -48 -20 0 -5 -17 -14 -37 -21 -61 -19 -192 -93 -353
-198 -183 -120 -398 -323 -546 -516 -51 -67 -134 -185 -134 -191 0 -3 -21 -39
-46 -81 -45 -74 -115 -216 -128 -260 -7 -23 -7 -23 112 -23 l118 0 24 53 c44
97 141 257 221 363 235 312 602 582 969 714 19 6 44 16 55 21 11 4 38 13 60
19 22 6 56 16 75 21 144 41 349 69 550 76 75 2 143 0 155 -5 11 -6 67 -15 125
-20 113 -12 213 -28 245 -41 30 -12 86 -29 122 -36 18 -4 35 -11 38 -16 4 -5
16 -9 29 -9 12 0 26 -4 31 -8 6 -5 33 -17 60 -27 118 -43 348 -166 430 -230
22 -18 50 -37 62 -43 12 -7 27 -18 35 -25 7 -7 45 -38 83 -69 79 -63 175 -161
225 -228 18 -25 38 -49 44 -55 22 -20 113 -152 155 -225 23 -41 47 -82 52 -90
46 -74 169 -372 169 -408 0 -10 4 -22 8 -28 5 -5 17 -45 26 -89 9 -44 21 -96
26 -115 5 -19 12 -78 16 -130 4 -52 10 -99 14 -105 21 -27 -5 -410 -40 -585
-12 -59 -56 -212 -70 -245 -5 -11 -16 -41 -24 -67 -9 -26 -20 -56 -25 -65 -6
-10 -24 -52 -42 -93 -17 -41 -39 -86 -48 -100 -9 -14 -25 -41 -34 -60 -37 -74
-59 -107 -166 -250 -166 -222 -432 -444 -691 -577 -129 -66 -262 -123 -285
-123 -9 0 -26 -6 -38 -14 -12 -8 -51 -22 -87 -31 -36 -9 -81 -21 -100 -26 -19
-6 -73 -17 -120 -25 -257 -42 -401 -49 -565 -27 -49 7 -128 17 -175 23 -47 7
-110 20 -140 30 -30 10 -73 22 -95 26 -52 9 -183 59 -295 112 -25 11 -61 28
-80 37 -107 49 -316 183 -408 263 -117 101 -172 155 -245 242 -87 104 -207
271 -207 289 0 7 -40 11 -125 11 -86 0 -125 -4 -125 -11 0 -21 102 -180 225
-352 40 -56 307 -324 375 -376 30 -23 66 -51 80 -62 14 -11 52 -37 85 -58 33
-21 82 -52 109 -69 116 -75 347 -177 491 -217 33 -9 81 -23 107 -31 26 -8 57
-14 70 -14 13 0 28 -4 34 -9 40 -39 784 -48 959 -12 106 22 141 29 180 40 125
36 153 44 180 56 17 7 41 16 55 20 24 7 120 49 190 83 99 49 289 167 370 231
159 126 252 214 353 331 45 52 89 104 99 114 10 11 18 23 18 27 0 4 6 14 14
22 19 18 122 177 159 242 47 84 124 248 137 290 6 22 15 49 20 60 16 35 38
109 45 150 4 22 13 51 20 65 68 136 71 1004 4 1160 -6 14 -22 68 -35 120 -13
52 -33 114 -44 137 -11 24 -20 49 -20 56 0 24 -144 300 -205 392 -186 283
-427 524 -705 706 -47 31 -98 64 -115 73 -16 9 -37 20 -45 26 -31 19 -227 108
-265 120 -22 7 -44 16 -50 20 -5 4 -41 15 -80 25 -38 10 -95 26 -125 36 -123
40 -308 57 -620 56 -124 -1 -263 -3 -310 -4z"/>
<path d="M4724 3871 c-2 -2 -4 -438 -4 -968 l0 -963 130 0 130 0 0 968 0 967
-126 0 c-69 0 -128 -2 -130 -4z"/>
<path d="M405 3675 c-110 -39 -146 -174 -69 -263 78 -91 222 -73 274 34 48 97
-2 204 -108 234 -46 12 -48 12 -97 -5z"/>
<path d="M1402 3079 c-61 -12 -141 -50 -184 -88 -20 -17 -38 -31 -42 -31 -3 0
-6 23 -6 50 l0 51 -127 -3 -128 -3 -3 -557 -2 -558 130 0 130 0 0 308 c0 343
8 422 48 502 37 75 86 102 185 102 117 0 167 -32 197 -127 9 -28 14 -149 17
-412 l5 -373 129 0 129 0 0 338 c-1 494 -14 587 -101 686 -48 55 -140 102
-224 116 -69 11 -93 11 -153 -1z"/>
<path d="M3754 3080 c-191 -34 -360 -160 -439 -325 -41 -86 -55 -152 -55 -253
1 -259 151 -478 383 -560 87 -30 231 -40 333 -23 163 28 329 149 406 297 54
103 71 186 65 314 -8 164 -55 269 -173 387 -75 74 -170 129 -264 151 -67 16
-198 22 -256 12z m265 -265 c113 -62 167 -168 165 -325 -2 -155 -53 -253 -165
-315 -50 -28 -61 -30 -159 -30 -95 0 -110 3 -163 29 -115 56 -172 164 -171
326 0 122 25 189 94 259 70 71 129 92 250 88 83 -2 102 -6 149 -32z"/>
<path d="M330 2500 l0 -560 130 0 130 0 0 560 0 560 -130 0 -130 0 0 -560z"/>
<path d="M2030 3049 c0 -10 556 -1167 566 -1178 2 -2 62 115 133 260 71 145
201 412 290 593 88 181 161 331 161 333 0 2 -65 2 -145 1 l-146 -3 -141 -307
c-78 -170 -144 -308 -147 -308 -4 0 -70 138 -148 308 l-142 307 -141 3 c-100
2 -140 -1 -140 -9z"/>
<path d="M5180 3057 c0 -5 570 -1180 575 -1185 3 -3 43 73 89 169 46 96 143
296 216 444 192 391 270 555 270 566 0 6 -57 8 -141 7 l-141 -3 -142 -307
c-77 -170 -144 -308 -147 -308 -3 0 -70 140 -149 310 l-143 310 -144 0 c-78 0
-143 -1 -143 -3z"/>
<path d="M6536 2215 c-107 -37 -145 -154 -79 -243 35 -47 76 -65 138 -60 93 8
152 76 143 168 -10 104 -106 168 -202 135z"/>
</g>
</svg>
